#!OML:ASF F:\VICON\USERDATA\INSTALL\rory3\rory3.ASF
:FULLY-SPECIFIED
:DEGREES
1011
root -2.09227 14.8383 -34.6258 -318.697 50.2054 21.3697
lowerback -21.6981 -9.08432 -1.06756
upperback -11.2917 -11.2667 0.900985
thorax -0.0147458 -5.44309 -0.835038
lowerneck 1.92471 -15.2842 -11.8675
upperneck 9.4323 -21.3066 9.11462
head 4.77035 -10.6302 3.44348
rclavicle -1.21259e-014 2.54444e-014
rhumerus -29.6805 5.17334 -81.1256
rradius 25.625
rwrist -11.008
rhand -5.53188 11.6553
rfingers 7.12502
rthumb 20.2823 -17.3057
lclavicle -1.21259e-014 2.54444e-014
lhumerus -35.6018 -7.13908 95.2087
lradius 27.1356
lwrist -12.8434
lhand -11.3317 15.4761
lfingers 7.12502
lthumb 14.7009 44.9348
rfemur -95.4426 -40.3361 402.054
rtibia 61.8736
rfoot 144.682 142.694
rtoes 38.9322
lfemur -17.8086 -13.068 -29.4553
ltibia 34.5576
lfoot -44.0155 11.7676
ltoes -13.104
1012
root -2.08666 14.8249 -34.6283 -318.56 50.0958 21.3448
lowerback -21.5853 -9.03198 -0.781521
upperback -11.5199 -11.245 0.792617
thorax -0.396863 -5.44934 -1.04816
lowerneck 2.10527 -15.2474 -11.9135
upperneck 9.54839 -21.2863 9.13316
head 4.782 -10.6261 3.46755
rclavicle 9.651e-014 -1.59028e-015
rhumerus -29.763 5.07026 -81.1236
rradius 25.4645
rwrist -11.426
rhand -9.09228 15.2408
rfingers 7.12502
rthumb 16.8576 -14.0475
lclavicle 9.651e-014 -1.59028e-015
lhumerus -35.5639 -6.52648 94.7902
lradius 27.5017
lwrist -11.1874
lhand -10.5098 16.2088
lfingers 7.12502
lthumb 15.4926 45.6081
rfemur -95.6325 -40.1457 402.022
rtibia 61.9269
rfoot 144.557 142.737
rtoes 39.325
lfemur -18.9949 -12.9441 -29.5327
ltibia 34.5067
lfoot -41.0684 18.6979
ltoes -26.5527
1013
root -2.0828 14.8205 -34.6413 -318.486 50.0149 21.2864
lowerback -21.6289 -8.97683 -0.590535
upperback -11.5768 -11.205 0.774016
thorax -0.477395 -5.43884 -1.15786
lowerneck 2.18706 -15.3645 -11.9668
upperneck 9.41712 -21.4467 9.15971
head 4.75405 -10.7092 3.47626
rclavicle -5.89397e-014 7.95139e-015
rhumerus -29.4831 4.49896 -80.7282
rradius 25.5007
rwrist -12.2491
rhand -4.96339 11.7173
rfingers 7.12502
rthumb 20.8286 -17.1847
lclavicle -5.89397e-014 7.95139e-015
lhumerus -35.2558 -5.96151 94.5105
lradius 27.9226
lwrist -9.40603
lhand -9.43314 17.0628
lfingers 7.12502
lthumb 16.5295 46.3788
rfemur -95.8151 -40.0308 402.092
rtibia 61.9217
rfoot 144.647 142.793
rtoes 39.5325
lfemur -19.1699 -13.1524 -29.5897
ltibia 34.5501
lfoot -41.2393 18.9329
ltoes -26.4379
1014
root -2.08149 14.8264 -34.6316 -318.656 50.0427 21.2548
lowerback -21.6162 -9.03988 -0.709019
upperback -11.4759 -11.2715 0.815048
thorax -0.342493 -5.46594 -1.07725
lowerneck 2.10693 -15.2435 -12.2463
upperneck 9.61283 -21.3108 9.35599
head 4.86398 -10.64 3.56473
rclavicle -2.83268e-014 1.59028e-015
rhumerus -29.4059 4.6678 -80.7633
rradius 24.3274
rwrist -11.123
rhand -6.29829 14.9157
rfingers 7.12502
rthumb 19.5456 -14.1218
lclavicle -2.83268e-014 1.59028e-015
lhumerus -34.9258 -5.6718 94.4461
lradius 28.3539
lwrist -7.81583
lhand -8.55776 17.9174
lfingers 7.12502
lthumb 17.3721 47.1611
rfemur -95.7934 -40.2512 402.317
rtibia 61.9597
rfoot 144.685 143.046
rtoes 39.5462
lfemur -18.9392 -13.1347 -29.5645
ltibia 34.4711
lfoot -41.2534 18.9979
ltoes -26.474
1015
root -2.07924 14.8185 -34.6615 -318.207 49.8764 21.1552
lowerback -21.9506 -8.92842 -0.340281
upperback -11.6353 -11.1768 0.818046
thorax -0.42298 -5.43268 -1.27733
lowerneck 1.84128 -15.4888 -12.1851
upperneck 9.70458 -21.6083 9.19105
head 4.94269 -10.7795 3.452
rclavicle 9.52179e-014 2.38542e-014
rhumerus -28.9945 3.74478 -80.2338
rradius 24.7507
rwrist -11.8252
rhand -7.12671 14.4214
rfingers 7.12502
rthumb 18.7489 -14.6951
lclavicle 9.52179e-014 2.38542e-014
lhumerus -34.4926 -5.17172 94.289
lradius 28.4266
lwrist -6.38305
lhand -7.87614 18.1593
lfingers 7.12502
lthumb 18.028 47.3438
rfemur -96.7919 -39.99 403.048
rtibia 61.8512
rfoot 145.311 142.965
rtoes 39.2182
lfemur -19.6929 -13.4065 -29.5852
ltibia 34.559
lfoot -41.3763 19.1724
ltoes -25.9232
1016
root -2.0832 14.828 -34.6409 -318.712 49.7606 20.9393
lowerback -21.614 -8.76481 -0.545883
upperback -11.7561 -10.9216 0.537375
thorax -0.735602 -5.3045 -1.34518
lowerneck 2.59538 -15.6447 -11.9286
upperneck 9.82789 -21.9001 9.14904
head 4.85903 -10.9386 3.4411
rclavicle 1.49089e-013 5.56597e-014
rhumerus -29.4737 1.7507 -79.6656
rradius 25.1218
rwrist -12.3264
rhand -5.0533 12.4298
rfingers 7.12502
rthumb 20.7422 -16.4817
lclavicle 1.49089e-013 5.56597e-014
lhumerus -34.7542 -5.25006 94.0506
lradius 28.3028
lwrist -5.03246
lhand -7.22872 18.0684
lfingers 7.12502
lthumb 18.6508 47.1943
rfemur -96.0094 -39.8892 402.574
rtibia 61.834
rfoot 144.993 143.05
rtoes 39.3014
lfemur -19.2599 -13.1573 -29.5618
ltibia 34.591
lfoot -41.6177 18.8807
ltoes -25.2686
